<?xml version="1.0" encoding="UTF-8"?>
<svg width="55px" height="32px" viewBox="0 0 55 32" version="1.1" xmlns="http://www.w3.org/2000/svg" xmlns:xlink="http://www.w3.org/1999/xlink">
    <!-- Generator: Sketch 52.6 (67491) - http://www.bohemiancoding.com/sketch -->
    <title>logo</title>
    <desc>Created with Sketch.</desc>
    <g id="Page-1" stroke="none" stroke-width="1" fill="none" fill-rule="evenodd">
        <g id="Group" transform="translate(-768.000000, -635.000000)">
            <g id="logo" transform="translate(766.000000, 635.000000)">
                <path d="M21.0878802,12.0497611 C21.0742642,10.9494539 20.9537226,9.89435933 20.5112029,8.90408284 C20.0114159,7.78377004 19.1664235,7.01915655 18.0306896,6.57143155 C16.7227535,6.05608766 15.3575501,5.98126677 13.9771289,6.07769369 C11.9455429,6.21933324 10.1266066,6.95313812 8.45904816,8.09825785 C7.92722356,8.46315973 7.35415051,8.74603871 6.69337446,8.78284899 C5.4022581,8.85446899 4.2925548,7.91260601 4.14157749,6.71027031 C4.00541757,5.6271679 4.44953917,4.80573855 5.23325962,4.1275492 C6.57203195,2.9696259 8.14628083,2.25342593 9.81864495,1.73088003 C11.2058742,1.29755905 12.6307476,1.08029838 14.0796493,1.00307682 C15.0860052,0.942464264 16.0957476,0.970446638 17.0971933,1.08670017 C19.1756343,1.34117122 21.1075032,1.98855198 22.7902796,3.2669089 C24.512302,4.57567432 25.6135954,6.30415692 26.1694482,8.38833884 C26.4669977,9.50345019 26.5579045,10.6437686 26.5595063,11.7928894 C26.5651129,16.1068939 26.5563026,20.4208984 26.5819327,24.7349029 C26.5867383,25.5775382 26.7104837,26.4201735 26.7977862,27.2608082 C26.8638638,27.8973859 26.8858897,28.5299625 26.6283872,29.1293299 C26.2599545,29.9863692 25.5807568,30.4569005 24.6764948,30.6369508 C23.7794413,30.8158007 22.4010224,30.2840523 21.9532966,29.4222116 C21.6969955,28.9300742 21.5616366,28.4079284 21.4919547,27.861776 C21.4711303,27.6981303 21.4519077,27.5340845 21.4314837,27.3416307 C21.3810244,27.3840426 21.3469845,27.4080493 21.3189515,27.4376575 C19.9973994,28.8228443 18.4415722,29.8383278 16.5934016,30.3840802 C15.6849774,30.6505437 14.7512525,30.8217812 13.8073295,30.8950229 C12.7937391,30.9750452 11.7813501,30.9830474 10.7721648,30.852611 C8.62804664,30.5757337 6.64732037,29.8959439 5.01099858,28.4263336 C3.40911724,26.9859314 2.42396022,25.2170375 2.22372505,23.0460314 C2.09717643,21.6736482 2.17646955,20.31927 2.5713333,18.9920995 C2.96980129,17.6529256 3.72628975,16.5462166 4.76711215,15.6259596 C6.00136172,14.5344549 7.44105257,13.8254569 9.00729205,13.3477235 C10.5372349,12.8848239 12.1083756,12.5707431 13.698802,12.4098617 C16.1168419,12.1585915 18.5444931,12.0745681 20.9717438,12.0497611 L21.0878802,12.0497611 Z M21.0718613,16.8603043 C21.0145941,16.8603043 20.9689405,16.8603043 20.9232869,16.8603043 C19.4059048,16.9227217 17.8841175,16.9791374 16.3659344,17.0511576 C15.2181865,17.1043724 14.0860568,17.2804216 12.9667422,17.5348926 C11.7869566,17.8029675 10.6512228,18.1822734 9.62601872,18.8520604 C8.58960149,19.5290494 7.97247671,20.4309012 7.97968517,21.7060572 C7.98368988,22.4414626 8.07139288,23.1516609 8.45424252,23.8002419 C9.02331086,24.763711 9.90714889,25.3030615 10.9439666,25.6131481 C12.3508189,26.0336655 13.7841022,26.0616734 15.2169851,25.7731928 C17.3074402,25.351075 18.8904994,24.1987532 19.9597552,22.36064 C20.9457132,20.662966 21.1751827,18.8052473 21.0722618,16.8603043 L21.0718613,16.8603043 Z" id="Shape" fill="#3A3F46" fill-rule="nonzero"></path>
                <path d="M48.154733,21.0089463 C48.154733,20.9358334 48.1495327,20.8627205 48.1495327,20.7896076 C48.1495327,14.2906836 48.1495327,7.79269193 48.1495327,1.29563243 L48.1495327,1.04672897 L56.1403323,1.04672897 C56.1435324,1.10865519 56.1495327,1.17257904 56.1495327,1.23610335 C56.1495327,7.78083938 56.1495327,14.3254422 56.1495327,20.8699119 C56.1495327,20.9162567 56.1463326,20.963001 56.1443325,21.0093458 L48.154733,21.0089463 Z" id="Path" fill="#8BD0CA"></path>
                <path d="M41.3401941,10.9906542 C41.3401941,11.0705558 41.3457944,11.1504574 41.3457944,11.230359 C41.3457944,17.7154396 41.3457944,24.2007864 41.3457944,30.6863997 L41.3457944,30.953271 L33.3457944,30.953271 C33.3457944,30.8925458 33.3457944,30.8294235 33.3457944,30.7663013 C33.3457944,24.2212945 33.3457944,17.6762878 33.3457944,11.131281 C33.3457944,11.0849381 33.3493946,11.0381957 33.3513947,10.9918527 L41.3401941,10.9906542 Z" id="Path" fill="#F89B62"></path>
                <path d="M41.3401659,10.9906542 L33.3513949,10.9906542 C33.3513949,10.7900557 33.3457944,10.5894572 33.3457944,10.3888587 C33.3457944,7.33334232 33.3457944,4.27782593 33.3457944,1.22230955 L33.3457944,0.971962617 L41.3325652,0.971962617 C41.3369656,1.0273278 41.3457665,1.08469898 41.3457665,1.14207015 C41.3457665,4.39149842 41.3457665,7.64119415 41.3457665,10.8911573 C41.3461665,10.9236543 41.3421661,10.9569537 41.3401659,10.9906542 Z" id="Path" fill="#FFDD8C"></path>
                <path d="M48.1547637,21.0093458 L56.1443325,21.0093458 C56.1443325,21.5309855 56.1495327,22.0526251 56.1495327,22.5742648 C56.1495327,25.3089941 56.1495327,28.0438573 56.1495327,30.7788541 L56.1495327,31.0280374 L48.1655642,31.0280374 C48.1574643,30.9787533 48.1521223,30.9290528 48.1495635,30.8791694 C48.1495635,27.6155777 48.1495635,24.351986 48.1495635,21.0883943 C48.1491634,21.0631148 48.1527636,21.0366316 48.1547637,21.0093458 Z" id="Path" fill="#D88098"></path>
            </g>
        </g>
    </g>
</svg>